<svg xmlns="http://www.w3.org/2000/svg" viewBox="0 0 512 512">
  <defs>
    <linearGradient id="bg" x1="0%" y1="0%" x2="100%" y2="100%">
      <stop offset="0%" style="stop-color:#0a0e27;stop-opacity:1" />
      <stop offset="100%" style="stop-color:#1a1f3a;stop-opacity:1" />
    </linearGradient>
    <linearGradient id="flame" x1="0%" y1="100%" x2="0%" y2="0%">
      <stop offset="0%" style="stop-color:#ff5722;stop-opacity:1" />
      <stop offset="50%" style="stop-color:#ff7043;stop-opacity:1" />
      <stop offset="100%" style="stop-color:#ffab91;stop-opacity:1" />
    </linearGradient>
  </defs>
  <rect width="512" height="512" rx="96" fill="url(#bg)"/>
  <path d="M256 120 C256 120 200 180 200 240 C200 280 220 310 240 330 L240 380 L272 380 L272 330 C292 310 312 280 312 240 C312 180 256 120 256 120 Z" fill="url(#flame)"/>
  <ellipse cx="256" cy="400" rx="80" ry="12" fill="#ff5722" opacity="0.3"/>
  <path d="M256 200 C256 200 230 230 230 260 C230 280 240 295 250 305 L250 340 L262 340 L262 305 C272 295 282 280 282 260 C282 230 256 200 256 200 Z" fill="#fff" opacity="0.2"/>
  <text x="256" y="460" font-family="Arial, sans-serif" font-size="48" font-weight="900" fill="#f1f5f9" text-anchor="middle" letter-spacing="-1">PARSPEL</text>
</svg>
